name analog
datacolumns 19
datarows 43
range 0.243 0.264
endheader
time	ground_force_vx	ground_force_vy	ground_force_vz	ground_force_px	ground_force_py	ground_force_pz	l_ground_force_vx	l_ground_force_vy	l_ground_force_vz	l_ground_force_px	l_ground_force_py	l_ground_force_pz	ground_torque_x	ground_torque_y	ground_torque_z	l_ground_torque_x	l_ground_torque_y	l_ground_torque_z
0.243	-0.0	-0.0	-0.0	0.5894856452941895	5.650668621063232	-638.9747924804688	-0.0	-0.0	-0.0	-0.0	-0.0	-0.0	-0.0	-0.0	-0.0	-0.0	-0.0	-0.0
0.2435	-0.0	-0.0	-0.0	0.9456846117973328	5.169563293457031	-638.1956787109375	-0.0	-0.0	-0.0	-0.0	-0.0	-0.0	-0.0	-0.0	-0.0	-0.0	-0.0	-0.0
0.244	-0.0	-0.0	-0.0	0.9813156127929688	5.026867389678955	-639.043701171875	-0.0	-0.0	-0.0	-0.0	-0.0	-0.0	-0.0	-0.0	-0.0	-0.0	-0.0	-0.0
0.2445	-0.0	-0.0	-0.0	0.8566172122955322	4.349824905395508	-639.6797485351562	-0.0	-0.0	-0.0	-0.0	-0.0	-0.0	-0.0	-0.0	-0.0	-0.0	-0.0	-0.0
0.245	-0.0	-0.0	-0.0	1.0885064601898191	4.171164512634277	-639.326904296875	-0.0	-0.0	-0.0	-0.0	-0.0	-0.0	-0.0	-0.0	-0.0	-0.0	-0.0	-0.0
0.2455	-0.0	-0.0	-0.0	1.3390426635742188	4.3665056228637695	-639.5375366210938	-0.0	-0.0	-0.0	-0.0	-0.0	-0.0	-0.0	-0.0	-0.0	-0.0	-0.0	-0.0
0.246	-0.0	-0.0	-0.0	1.4623026847839355	4.152977466583252	-641.0882568359375	-0.0	-0.0	-0.0	-0.0	-0.0	-0.0	-0.0	-0.0	-0.0	-0.0	-0.0	-0.0
0.2465	-0.0	-0.0	-0.0	1.4092215299606323	3.9927377700805664	-641.949462890625	-0.0	-0.0	-0.0	-0.0	-0.0	-0.0	-0.0	-0.0	-0.0	-0.0	-0.0	-0.0
0.247	-0.0	-0.0	-0.0	1.5694187879562378	3.707139253616333	-642.9314575195312	-0.0	-0.0	-0.0	-0.0	-0.0	-0.0	-0.0	-0.0	-0.0	-0.0	-0.0	-0.0
0.2475	-0.0	-0.0	-0.0	1.2833834886550903	3.832607269287109	-643.7747802734375	-0.0	-0.0	-0.0	-0.0	-0.0	-0.0	-0.0	-0.0	-0.0	-0.0	-0.0	-0.0
0.248	-0.0	-0.0	-0.0	1.4250991344451904	3.9720420837402335	-643.2855224609375	-0.0	-0.0	-0.0	-0.0	-0.0	-0.0	-0.0	-0.0	-0.0	-0.0	-0.0	-0.0
0.2485	-0.0	-0.0	-0.0	0.965506911277771	3.9375321865081783	-645.1043701171875	-0.0	-0.0	-0.0	-0.0	-0.0	-0.0	-0.0	-0.0	-0.0	-0.0	-0.0	-0.0
0.249	-0.0	-0.0	-0.0	0.4305352866649627	3.60202956199646	-645.467041015625	-0.0	-0.0	-0.0	-0.0	-0.0	-0.0	-0.0	-0.0	-0.0	-0.0	-0.0	-0.0
0.2495	-0.0	-0.0	-0.0	1.2765862941741943	3.402308225631714	-643.4452514648438	-0.0	-0.0	-0.0	-0.0	-0.0	-0.0	-0.0	-0.0	-0.0	-0.0	-0.0	-0.0
0.25	-0.0	-0.0	-0.0	0.6986087560653687	3.832607269287109	-645.2460327148438	-0.0	-0.0	-0.0	-0.0	-0.0	-0.0	-0.0	-0.0	-0.0	-0.0	-0.0	-0.0
0.2505	-0.0	-0.0	-0.0	0.9813156127929688	4.05911922454834	-643.5526733398438	-0.0	-0.0	-0.0	-0.0	-0.0	-0.0	-0.0	-0.0	-0.0	-0.0	-0.0	-0.0
0.251	-0.0	-0.0	-0.0	0.7509400844573975	3.45747447013855	-642.244140625	-0.0	-0.0	-0.0	-0.0	-0.0	-0.0	-0.0	-0.0	-0.0	-0.0	-0.0	-0.0
0.2515	-0.0	-0.0	-0.0	0.765492856502533	3.504873991012573	-642.8045043945312	-0.0	-0.0	-0.0	-0.0	-0.0	-0.0	-0.0	-0.0	-0.0	-0.0	-0.0	-0.0
0.252	-0.0	-0.0	-0.0	0.5584832429885864	2.5562937259674072	-642.1553344726562	-0.0	-0.0	-0.0	-0.0	-0.0	-0.0	-0.0	-0.0	-0.0	-0.0	-0.0	-0.0
0.2525	-0.0	-0.0	-0.0	0.9201820492744446	2.8474225997924805	-641.67236328125	-0.0	-0.0	-0.0	-0.0	-0.0	-0.0	-0.0	-0.0	-0.0	-0.0	-0.0	-0.0
0.253	-0.0	-0.0	-0.0	0.5729948282241821	2.5659327507019043	-640.7975463867188	-0.0	-0.0	-0.0	-0.0	-0.0	-0.0	-0.0	-0.0	-0.0	-0.0	-0.0	-0.0
0.2535	-0.0	-0.0	-0.0	0.7325875759124756	2.452575922012329	-639.6299438476562	-0.0	-0.0	-0.0	-0.0	-0.0	-0.0	-0.0	-0.0	-0.0	-0.0	-0.0	-0.0
0.254	-0.0	-0.0	-0.0	1.14076030254364	1.515216827392578	-640.1874389648438	-0.0	-0.0	-0.0	-0.0	-0.0	-0.0	-0.0	-0.0	-0.0	-0.0	-0.0	-0.0
0.2545	-0.0	-0.0	-0.0	0.9301687479019164	1.298926591873169	-641.3511962890625	-0.0	-0.0	-0.0	-0.0	-0.0	-0.0	-0.0	-0.0	-0.0	-0.0	-0.0	-0.0
0.255	-0.0	-0.0	-0.0	1.070526123046875	0.96138197183609	-639.3312377929688	-0.0	-0.0	-0.0	-0.0	-0.0	-0.0	-0.0	-0.0	-0.0	-0.0	-0.0	-0.0
0.2555	-0.0	-0.0	-0.0	1.0322412252426147	0.6618012189865112	-641.5506591796875	-0.0	-0.0	-0.0	-0.0	-0.0	-0.0	-0.0	-0.0	-0.0	-0.0	-0.0	-0.0
0.256	-0.0	-0.0	-0.0	1.070526123046875	0.1782608032226562	-639.532958984375	-0.0	-0.0	-0.0	-0.0	-0.0	-0.0	-0.0	-0.0	-0.0	-0.0	-0.0	-0.0
0.2565	-0.0	-0.0	-0.0	1.611093521118164	-0.3058270514011383	-639.53271484375	-0.0	-0.0	-0.0	-0.0	-0.0	-0.0	-0.0	-0.0	-0.0	-0.0	-0.0	-0.0
0.257	-0.0	-0.0	-0.0	1.5671731233596802	-0.8334318399429321	-638.472900390625	-0.0	-0.0	-0.0	-0.0	-0.0	-0.0	-0.0	-0.0	-0.0	-0.0	-0.0	-0.0
0.2575	-0.0	-0.0	-0.0	1.8540749549865725	-1.3874297142028809	-637.2429809570312	-0.0	-0.0	-0.0	-0.0	-0.0	-0.0	-0.0	-0.0	-0.0	-0.0	-0.0	-0.0
0.258	-0.0	-0.0	-0.0	1.8655383586883545	-1.732279896736145	-636.9828491210938	-0.0	-0.0	-0.0	-0.0	-0.0	-0.0	-0.0	-0.0	-0.0	-0.0	-0.0	-0.0
0.2585	-0.0	-0.0	-0.0	1.6868438720703125	-2.1893484592437744	-634.8184814453125	-0.0	-0.0	-0.0	-0.0	-0.0	-0.0	-0.0	-0.0	-0.0	-0.0	-0.0	-0.0
0.259	-0.0	-0.0	-0.0	1.814887881278992	-2.375870704650879	-635.4810180664062	-0.0	-0.0	-0.0	-0.0	-0.0	-0.0	-0.0	-0.0	-0.0	-0.0	-0.0	-0.0
0.2595	-0.0	-0.0	-0.0	1.9626312255859373	-2.0391335487365723	-636.1115112304688	-0.0	-0.0	-0.0	-0.0	-0.0	-0.0	-0.0	-0.0	-0.0	-0.0	-0.0	-0.0
0.26	-0.0	-0.0	-0.0	1.3774003982543943	-1.9715843200683596	-635.9569091796875	-0.0	-0.0	-0.0	-0.0	-0.0	-0.0	-0.0	-0.0	-0.0	-0.0	-0.0	-0.0
0.2605	-0.0	-0.0	-0.0	1.2489471435546875	-2.6437056064605717	-636.98095703125	-0.0	-0.0	-0.0	-0.0	-0.0	-0.0	-0.0	-0.0	-0.0	-0.0	-0.0	-0.0
0.261	-0.0	-0.0	-0.0	0.6141902804374695	-2.6242098808288574	-635.7645874023438	-0.0	-0.0	-0.0	-0.0	-0.0	-0.0	-0.0	-0.0	-0.0	-0.0	-0.0	-0.0
0.2615	-0.0	-0.0	-0.0	0.3269937336444855	-2.3472118377685547	-636.3519287109375	-0.0	-0.0	-0.0	-0.0	-0.0	-0.0	-0.0	-0.0	-0.0	-0.0	-0.0	-0.0
0.262	-0.0	-0.0	-0.0	-0.0494899898767471	-1.4657713174819946	-635.3707275390625	-0.0	-0.0	-0.0	-0.0	-0.0	-0.0	-0.0	-0.0	-0.0	-0.0	-0.0	-0.0
0.2625	-0.0	-0.0	-0.0	0.5846437811851501	-0.9509950876235962	-633.6837158203125	-0.0	-0.0	-0.0	-0.0	-0.0	-0.0	-0.0	-0.0	-0.0	-0.0	-0.0	-0.0
0.263	-0.0	-0.0	-0.0	-0.0798097848892211	-0.9898266792297364	-632.4290771484375	-0.0	-0.0	-0.0	-0.0	-0.0	-0.0	-0.0	-0.0	-0.0	-0.0	-0.0	-0.0
0.2635	-0.0	-0.0	-0.0	-0.4642711281776428	-0.2873985171318054	-632.3145751953125	-0.0	-0.0	-0.0	-0.0	-0.0	-0.0	-0.0	-0.0	-0.0	-0.0	-0.0	-0.0
0.264	-0.0	-0.0	-0.0	0.1583581566810608	0.2294443547725677	-630.7794189453125	-0.0	-0.0	-0.0	-0.0	-0.0	-0.0	-0.0	-0.0	-0.0	-0.0	-0.0	-0.0
